<svg xmlns="http://www.w3.org/2000/svg" viewBox="0 0 1000 1000" width="1000" height="1000" role="img" aria-label="Batata de balcão">
  <defs>
    
  <linearGradient id="bfoil" x1="0" y1="0" x2="1" y2="0"
      gradientTransform="rotate(25 .5 .5)">
    <stop offset="0%"   stop-color="#EDF2F7"/>
    <stop offset="22%"  stop-color="#C3CEDA"/>
    <stop offset="40%"  stop-color="#FBFDFE"/>
    <stop offset="58%"  stop-color="#B4C1CE"/>
    <stop offset="78%"  stop-color="#E4EBF2"/>
    <stop offset="100%" stop-color="#C9D4DE"/>
  </linearGradient>
    
  <pattern id="bbrush" width="6" height="6" patternUnits="userSpaceOnUse"
      patternTransform="rotate(115)">
    <rect width="6" height="6" fill="none"/>
    <rect width="1" height="6" fill="#FFFFFF" opacity=".55"/>
    <rect x="3" width="1" height="6" fill="#8FA0B0" opacity=".16"/>
  </pattern>
    <linearGradient id="pbg" x1="0" y1="0" x2="1" y2="1">
      <stop offset="0%" stop-color="#FFFFFF"/><stop offset="100%" stop-color="#E9EFF4"/>
    </linearGradient>
  </defs>
  <rect width="1000" height="1000" fill="url(#pbg)"/>
  <g transform="rotate(-18 500 500)"><rect x="180" y="-200" width="180" height="1400" fill="#FFFFFF" opacity=".55"/></g>
  <g transform="translate(180 110) scale(1.35)">
    <ellipse cx="240" cy="452" rx="180" ry="26" fill="#1B222B" opacity=".13"/>
    <path d="M120 120 L360 120 L300 430 L180 430 Z" fill="#232D39"/>
    <path d="M240 120 L360 120 L300 430 L240 430 Z" fill="#3B4856"/>
    <path d="M112 96 L368 96 L360 156 L120 156 Z" fill="url(#bfoil)"/>
    <path d="M112 96 L368 96 L360 156 L120 156 Z" fill="url(#bbrush)" opacity=".6"/>
    <path d="M112 96 L368 96 L360 156 L120 156 Z" fill="none" stroke="#FFFFFF" stroke-width="3"/>
    <path d="M150 150 L330 150 L318 210 L162 210 Z" fill="url(#bfoil)" opacity=".85"/>
  </g>
  <rect x="80" y="828" width="132" height="5" rx="3" fill="url(#bfoil)"/>
  <text x="80" y="898" font-family="Liberation Sans, Helvetica, Arial, sans-serif" font-size="46" font-weight="bold" fill="#1B222B">Batata de balcão</text>
  <text x="80" y="946" font-family="Liberation Sans, Helvetica, Arial, sans-serif" font-size="27" font-weight="bold" letter-spacing="5" fill="#0C7C92">INTERIOR METALIZADO</text>
</svg>