<svg xmlns="http://www.w3.org/2000/svg" viewBox="0 0 1200 630" width="1200" height="630">
  <defs>
    
  <linearGradient id="bfoil" x1="0" y1="0" x2="1" y2="0"
      gradientTransform="rotate(25 .5 .5)">
    <stop offset="0%"   stop-color="#EDF2F7"/>
    <stop offset="22%"  stop-color="#C3CEDA"/>
    <stop offset="40%"  stop-color="#FBFDFE"/>
    <stop offset="58%"  stop-color="#B4C1CE"/>
    <stop offset="78%"  stop-color="#E4EBF2"/>
    <stop offset="100%" stop-color="#C9D4DE"/>
  </linearGradient>
    
  <pattern id="bbrush" width="6" height="6" patternUnits="userSpaceOnUse"
      patternTransform="rotate(115)">
    <rect width="6" height="6" fill="none"/>
    <rect width="1" height="6" fill="#FFFFFF" opacity=".55"/>
    <rect x="3" width="1" height="6" fill="#8FA0B0" opacity=".16"/>
  </pattern>
    <linearGradient id="ogbg" x1="0" y1="0" x2="1" y2="1">
      <stop offset="0%" stop-color="#1B222B"/><stop offset="100%" stop-color="#0E141A"/>
    </linearGradient>
  </defs>
  <rect width="1200" height="630" fill="url(#ogbg)"/>
  <rect y="612" width="1200" height="18" fill="url(#bfoil)"/>
  <text x="80" y="214" font-family="Liberation Sans, Helvetica, Arial, sans-serif" font-size="76" font-weight="bold" letter-spacing="1" fill="#FFFFFF">FORPACK</text>
  <rect x="82" y="240" width="360" height="4" fill="url(#bfoil)"/>
  <text x="82" y="292" font-family="Liberation Sans, Helvetica, Arial, sans-serif" font-size="27" font-weight="bold" letter-spacing="7" fill="#AEBECB">EMBALAGENS METALIZADAS</text>
  <text x="80" y="392" font-family="Liberation Sans, Helvetica, Arial, sans-serif" font-size="38" fill="#E7EDF3">Pastel · Hambúrguer · Batata · Churros · Espetinho</text>
  <text x="80" y="452" font-family="Liberation Sans, Helvetica, Arial, sans-serif" font-size="30" fill="#8FA3B4">Atacado a partir de 50 unidades — envio para todo o Brasil</text>
  <g transform="translate(760 130) scale(0.74)">
    <!-- sombra de contato -->
    <ellipse cx="240" cy="452" rx="230" ry="30" fill="#1B222B" opacity=".13"/>
    <!-- tampa erguida -->
    <g transform="rotate(-13 240 150)">
      <path d="M60 150 L240 62 L420 150 L240 238 Z" fill="url(#bfoil)"/>
      <path d="M60 150 L240 62 L420 150 L240 238 Z" fill="url(#bbrush)" opacity=".55"/>
      <path d="M60 150 L240 62 L420 150 L240 238 Z" fill="none" stroke="#FFFFFF" stroke-width="3"/>
    </g>
    <!-- interior metalizado -->
    <path d="M64 262 L240 176 L416 262 L240 348 Z" fill="url(#bfoil)"/>
    <path d="M64 262 L240 176 L416 262 L240 348 Z" fill="url(#bbrush)" opacity=".7"/>
    <!-- corpo -->
    <path d="M64 262 L240 348 L240 452 L64 366 Z" fill="#232D39"/>
    <path d="M416 262 L240 348 L240 452 L416 366 Z" fill="#3B4856"/>
    <path d="M64 262 L240 348 L240 452 L64 366 Z" fill="none" stroke="#0C7C92" stroke-width="2" opacity=".45"/>
    <!-- brilho na aresta -->
    <path d="M240 176 L416 262" stroke="#FFFFFF" stroke-width="3" opacity=".8"/>
  </g>
</svg>